<svg xmlns="http://www.w3.org/2000/svg" xmlns:xlink="http://www.w3.org/1999/xlink" viewBox="0 0 77 21"><path d="M 20.477 3.992 C 19.598 3.992 18.819 4.457 18.344 5.175 L 15.12 10.038 C 15.002 10.216 14.808 10.333 14.587 10.333 C 14.225 10.333 13.931 10.018 13.931 9.628 C 13.931 9.483 13.971 9.347 14.04 9.236 L 16.763 4.852 C 17.299 3.988 17.35 2.876 16.894 1.96 C 16.439 1.044 15.552 0.473 14.587 0.473 L 0.19 0.473 L 0.19 3.289 L 12.626 3.289 C 12.626 4.066 12.039 4.697 11.317 4.697 L 0.19 4.697 C 0.19 5.699 0.384 6.651 0.737 7.514 L 10.008 7.514 C 10.008 8.29 9.421 8.922 8.7 8.922 L 1.498 8.922 C 2.692 10.632 4.594 11.739 6.736 11.739 L 10.661 11.739 C 11.023 11.739 11.317 12.055 11.317 12.444 C 11.317 12.834 11.023 13.15 10.661 13.15 L 6.736 13.15 L 2.363 20.194 L 10.991 20.194 C 14.613 20.194 17.688 17.658 18.762 14.148 L 20.237 9.338 C 20.715 7.776 21.588 6.408 22.731 5.369 C 22.27 4.543 21.434 3.992 20.477 3.992 Z M 20.477 5.93 C 20.207 5.93 19.988 5.694 19.988 5.403 C 19.988 5.112 20.207 4.876 20.477 4.876 C 20.749 4.876 20.967 5.113 20.967 5.403 C 20.97 5.693 20.749 5.93 20.477 5.93 Z M 39.173 13.279 C 39.702 14.01 39.966 14.845 39.966 15.785 C 39.966 17.14 39.525 18.213 38.646 19.005 C 37.767 19.797 36.538 20.194 34.966 20.194 L 27.951 20.194 L 27.951 3.986 L 34.731 3.986 C 36.261 3.986 37.46 4.362 38.325 5.117 C 39.19 5.871 39.622 6.895 39.622 8.189 C 39.622 9.144 39.39 9.936 38.926 10.568 C 38.463 11.199 37.844 11.637 37.071 11.883 C 37.941 12.081 38.643 12.546 39.173 13.279 Z M 31.619 10.543 L 34.021 10.543 C 34.623 10.543 35.084 10.401 35.404 10.115 C 35.725 9.831 35.888 9.409 35.888 8.857 C 35.888 8.303 35.728 7.881 35.404 7.588 C 35.084 7.295 34.623 7.15 34.021 7.15 L 31.619 7.15 Z M 35.751 16.555 C 36.086 16.256 36.255 15.822 36.255 15.252 C 36.255 14.681 36.08 14.235 35.728 13.911 C 35.379 13.588 34.895 13.427 34.279 13.427 L 31.619 13.427 L 31.619 17.005 L 34.322 17.005 C 34.938 17.008 35.413 16.857 35.751 16.555 Z M 45.759 3.986 L 45.759 20.194 L 42.091 20.194 L 42.091 3.986 Z M 56.101 20.194 L 52.969 14.074 L 52.09 14.074 L 52.09 20.194 L 48.419 20.194 L 48.419 3.986 L 54.575 3.986 C 55.763 3.986 56.774 4.207 57.61 4.654 C 58.446 5.101 59.074 5.714 59.489 6.491 C 59.904 7.267 60.11 8.133 60.11 9.089 C 60.11 10.167 59.827 11.128 59.263 11.976 C 58.698 12.823 57.865 13.424 56.763 13.775 L 60.239 20.194 Z M 52.087 11.279 L 54.36 11.279 C 55.033 11.279 55.537 11.104 55.872 10.749 C 56.207 10.395 56.376 9.896 56.376 9.249 C 56.376 8.632 56.207 8.149 55.872 7.794 C 55.537 7.44 55.033 7.264 54.36 7.264 L 52.087 7.264 Z M 72.214 4.999 C 73.402 5.677 74.319 6.626 74.971 7.85 C 75.621 9.073 75.948 10.484 75.948 12.087 C 75.948 13.674 75.621 15.082 74.971 16.312 C 74.321 17.544 73.397 18.496 72.202 19.174 C 71.008 19.852 69.625 20.191 68.05 20.191 L 62.407 20.191 L 62.407 3.983 L 68.05 3.983 C 69.64 3.986 71.026 4.325 72.214 4.999 Z M 71.054 15.553 C 71.827 14.737 72.214 13.584 72.214 12.09 C 72.214 10.598 71.827 9.434 71.054 8.605 C 70.281 7.773 69.202 7.357 67.816 7.357 L 66.078 7.357 L 66.078 16.777 L 67.816 16.777 C 69.202 16.777 70.281 16.367 71.054 15.553 Z" fill="#005c4b"></path></svg>